PathFileType  4	(X/Y/Z) C:\Users\antoi\Documents\MyRepositories\mobilecap\ResultsAnalysis
DataRate	CameraRate	NumFrames	NumMarkers	Units	OrigDataRate	OrigDataStartFrame	OrigNumFrames
100.0	100.0	4	51	mm	100.0	1	271
Frame#	Time	r_knee			r_shank_antsup			r_ankle			r_calc			r_5meta			r_toe			L_knee			L_shank_antsup			L_ankle			L_calc			L_5meta			L_toe			r_sh2			r_sh3			r_sh4			L_sh2			L_sh3			r_thigh1			r_thigh2			r_thigh3			r_thigh4			r_thigh5			L_thigh1			L_thigh2			L_thigh3			L_thigh4			r.ASIS			r.PSIS			L.ASIS			L.PSIS			C7			R_Shoulder			L_Shoulder			R_Sternum			L_Sternum			R_humerus			R_elbow_med			R_elbow_lat			R_forearm			R_wrist_radius			R_wrist_ulna			L_humerus			L_elbow_med			L_elbow_lat			L_forearm			L_wrist_radius			L_wrist_ulna			R_HJC			L_HJC			R_HJC_reg			L_HJC_reg			
		X1	Y1	Z1	X2	Y2	Z2	X3	Y3	Z3	X4	Y4	Z4	X5	Y5	Z5	X6	Y6	Z6	X7	Y7	Z7	X8	Y8	Z8	X9	Y9	Z9	X10	Y10	Z10	X11	Y11	Z11	X12	Y12	Z12	X13	Y13	Z13	X14	Y14	Z14	X15	Y15	Z15	X16	Y16	Z16	X17	Y17	Z17	X18	Y18	Z18	X19	Y19	Z19	X20	Y20	Z20	X21	Y21	Z21	X22	Y22	Z22	X23	Y23	Z23	X24	Y24	Z24	X25	Y25	Z25	X26	Y26	Z26	X27	Y27	Z27	X28	Y28	Z28	X29	Y29	Z29	X30	Y30	Z30	X31	Y31	Z31	X32	Y32	Z32	X33	Y33	Z33	X34	Y34	Z34	X35	Y35	Z35	X36	Y36	Z36	X37	Y37	Z37	X38	Y38	Z38	X39	Y39	Z39	X40	Y40	Z40	X41	Y41	Z41	X42	Y42	Z42	X43	Y43	Z43	X44	Y44	Z44	X45	Y45	Z45	X46	Y46	Z46	X47	Y47	Z47	X48	Y48	Z48	X49	Y49	Z49	X50	Y50	Z50	X51	Y51	Z51	

1	0.00000000	-1221.32404	809.34266	-434.25483	-1194.00629	714.59577	-440.73914	-1283.16811	400.25314	-454.24407	-1344.13172	365.29278	-502.87957	-1162.71605	351.18585	-416.28565	-1130.22315	379.54115	-470.34589	-1227.00143	814.15683	-727.97034	-1195.30906	729.65545	-717.03309	-1272.99550	405.16712	-711.47753	-1342.66882	361.36827	-668.26984	-1166.04883	350.76511	-752.39324	-1120.22925	374.72331	-695.81476	-1207.32199	601.66346	-444.19669	-1257.45477	719.70159	-399.33306	-1277.38666	605.47175	-399.35628	-1275.43137	747.95336	-755.23121	-1288.73426	626.78182	-760.25329	-1153.39843	1086.05565	-414.30453	-1152.48872	975.87657	-429.13614	-1203.88582	946.48911	-396.15782	-1265.77144	1078.10263	-393.89121	-1256.57027	963.80041	-409.57122	-1142.12024	1058.67333	-744.64554	-1138.96862	920.76468	-720.74218	-1247.67173	1050.38584	-781.65703	-1243.66209	919.94811	-749.99589	-1119.78039	1276.79469	-462.27220	-1325.44455	1323.15234	-538.77672	-1126.83410	1278.78992	-718.13062	-1326.14293	1322.87084	-632.74915	-1292.50679	1775.30395	-587.01228	-1230.33095	1750.88425	-420.41933	-1213.88461	1746.22229	-739.80055	-1166.01836	1709.17114	-560.24162	-1166.93918	1708.41466	-605.79058	-1187.43819	1620.47631	-368.89504	-1266.26839	1414.86710	-401.89274	-1239.36423	1423.38269	-345.36771	-1177.46789	1363.93195	-334.47966	-1121.06727	1204.89107	-375.73954	-1147.75050	1202.95196	-333.22264	-1179.04502	1606.76195	-796.56506	-1257.78014	1401.32127	-755.80523	-1221.01965	1416.53782	-821.90135	-1165.71948	1363.53100	-829.55267	-1108.53271	1194.49632	-798.95618	-1139.29835	1194.97715	-841.36113	-1208.95795	1195.20723	-487.16738	-1212.43489	1197.28311	-676.68663	-1200.26902	1205.78374	-497.64288	-1201.52446	1205.27770	-666.57330	
2	0.01000000	-1220.99898	809.31625	-434.35929	-1193.89355	714.42083	-440.77861	-1283.42147	400.18383	-454.09443	-1344.21858	365.26491	-502.82304	-1162.64205	351.27330	-416.01172	-1130.26116	379.58478	-470.34908	-1227.06416	814.21074	-727.95029	-1195.34150	729.69935	-717.04035	-1272.99250	405.17572	-711.46762	-1342.68084	361.39549	-668.27555	-1166.06215	350.79793	-752.40625	-1120.25053	374.77771	-695.87865	-1207.37370	601.60503	-444.06374	-1258.18441	719.29921	-399.43298	-1277.11071	605.78011	-399.54886	-1275.51112	748.04863	-755.32729	-1288.85081	626.79015	-760.14795	-1153.42468	1086.07263	-414.27340	-1152.49400	975.88063	-429.19218	-1203.74163	946.29372	-396.20291	-1265.65939	1078.11105	-393.72912	-1256.59523	963.75784	-409.62627	-1142.12064	1058.66912	-744.64563	-1138.96325	920.70425	-720.70835	-1247.53672	1050.56547	-782.20560	-1243.70841	919.95580	-750.01007	-1119.77929	1276.77949	-462.23768	-1325.42980	1323.10927	-538.61913	-1126.73160	1278.81099	-718.09627	-1326.11406	1322.86803	-632.76393	-1292.44793	1775.29582	-586.98693	-1230.28680	1750.78953	-420.43690	-1213.88153	1746.18136	-739.65361	-1166.02041	1709.17065	-560.23273	-1166.90144	1708.33458	-605.76763	-1187.42004	1620.35753	-369.04597	-1266.27990	1414.79466	-401.79938	-1239.34324	1423.28771	-345.28643	-1177.50282	1363.88616	-334.38500	-1121.14420	1204.77241	-375.80201	-1147.84964	1202.87409	-333.23099	-1179.07465	1606.66910	-796.54898	-1257.82421	1401.22323	-755.73215	-1221.10276	1416.49827	-821.82764	-1165.75370	1363.45777	-829.52483	-1108.58738	1194.42021	-799.02407	-1139.35853	1194.91262	-841.39152	-1208.91639	1195.17584	-487.13752	-1212.37325	1197.29578	-676.65665	-1200.21735	1205.72651	-497.65302	-1201.44518	1205.29362	-666.58234	
3	0.02000000	-1220.69338	809.32473	-434.36195	-1193.81575	714.32425	-440.72162	-1283.56876	400.15468	-454.01456	-1344.22858	365.24915	-502.83238	-1162.64575	351.29631	-415.94836	-1130.29795	379.60856	-470.32562	-1227.13996	814.28671	-727.99776	-1195.38848	729.68581	-717.01058	-1273.00006	405.26140	-711.56876	-1342.69395	361.39269	-668.25254	-1166.08098	350.84638	-752.43187	-1120.25309	374.79601	-695.87889	-1207.34188	601.57670	-444.02185	-1258.02923	719.39168	-399.37161	-1277.04705	605.84838	-399.59951	-1275.57694	748.08704	-755.36013	-1288.95223	626.77794	-760.08668	-1152.74647	1086.05810	-414.41038	-1152.47327	975.87938	-429.23489	-1203.65497	946.19360	-396.25707	-1265.57264	1078.11042	-393.62282	-1256.47924	963.71921	-409.60792	-1142.11777	1058.65533	-744.64584	-1139.01851	920.66201	-720.64191	-1247.44365	1050.78480	-782.89204	-1243.74989	919.96631	-750.02822	-1119.77365	1276.79623	-462.21831	-1325.40641	1323.06659	-538.57536	-1126.62806	1278.82351	-718.04665	-1326.08816	1322.87654	-632.75584	-1292.38085	1775.26090	-586.94949	-1230.21326	1750.67811	-420.44177	-1213.86187	1746.12300	-739.59903	-1165.99113	1709.09152	-560.21307	-1166.90539	1708.27397	-605.72104	-1187.38557	1620.26628	-369.08700	-1266.31465	1414.69677	-401.74840	-1239.34892	1423.18590	-345.24871	-1177.54280	1363.80331	-334.32714	-1121.23415	1204.68242	-375.83357	-1147.93034	1202.77592	-333.22065	-1179.11737	1606.55556	-796.44821	-1257.71391	1401.17282	-755.50381	-1221.17170	1416.47477	-821.75889	-1165.80522	1363.35195	-829.43444	-1108.61904	1194.33063	-799.09599	-1139.43174	1194.85067	-841.38931	-1208.87743	1195.16867	-487.11341	-1212.29797	1197.30443	-676.63303	-1200.13584	1205.66639	-497.67113	-1201.35851	1205.32559	-666.57896	
4	0.03000000	-1220.51247	809.33501	-434.36761	-1193.74926	714.28249	-440.57345	-1283.60644	400.16337	-453.99131	-1344.20722	365.24647	-502.87638	-1162.68860	351.27428	-416.03673	-1130.31940	379.62399	-470.30569	-1227.20916	814.35152	-728.07547	-1195.45366	729.64766	-716.95237	-1273.01916	405.34962	-711.66778	-1342.70950	361.39167	-668.23769	-1166.09770	350.88664	-752.44457	-1120.25139	374.80807	-695.85854	-1207.23248	601.54079	-444.13808	-1257.86263	719.45623	-399.33115	-1276.95006	605.89861	-399.65791	-1275.63389	748.09370	-755.35061	-1289.01433	626.77502	-760.08433	-1151.66611	1086.02523	-414.65469	-1152.43205	975.90988	-429.24914	-1203.49898	946.32219	-395.98674	-1265.49027	1078.09680	-393.54515	-1256.28784	963.67181	-409.54154	-1142.11407	1058.63600	-744.64106	-1139.13734	920.59301	-720.53565	-1247.39619	1050.92086	-783.30649	-1243.78920	919.97394	-750.04685	-1119.76629	1276.82564	-462.18891	-1325.36056	1323.01616	-538.56484	-1126.56885	1278.85917	-717.97993	-1326.03596	1322.88385	-632.71719	-1292.33177	1775.21669	-586.89494	-1230.10066	1750.56922	-420.41551	-1213.82475	1746.05360	-739.60477	-1165.93551	1708.96175	-560.20275	-1166.90350	1708.23927	-605.68713	-1187.31299	1620.17150	-369.08728	-1266.34846	1414.62953	-401.69282	-1239.36043	1423.10448	-345.20163	-1177.57458	1363.69197	-334.31783	-1121.34609	1204.59684	-375.84293	-1148.00991	1202.66062	-333.22529	-1179.15275	1606.44623	-796.31347	-1257.50440	1401.17014	-755.17998	-1221.22251	1416.46503	-821.68069	-1165.85682	1363.24587	-829.34724	-1108.63730	1194.24273	-799.14503	-1139.51569	1194.79054	-841.33217	-1208.82744	1195.16710	-487.08583	-1212.21829	1197.32226	-676.60576	-1200.05974	1205.60936	-497.68533	-1201.27121	1205.37204	-666.56791	
